<svg width="35" height="36" viewBox="0 0 35 36" fill="none" xmlns="http://www.w3.org/2000/svg">
<path d="M31.1473 13.5118L31.1255 13.4908C31.1238 13.4896 31.1224 13.4881 31.1215 13.4862L17.5006 0.328125L3.87983 13.4859C3.87826 13.4874 3.8758 13.4905 3.8758 13.4905L3.85333 13.5115C1.77053 15.5348 0.447586 18.1726 0.0948177 21.0056C-0.25795 23.8386 0.379698 26.7042 1.90639 29.1469C3.43309 31.5897 5.76122 33.4694 8.52069 34.4871C11.2802 35.5047 14.3126 35.6023 17.136 34.7638C17.3735 34.6937 17.6275 34.6937 17.8651 34.7638C20.6882 35.6019 23.7205 35.5044 26.4798 34.4866C29.2391 33.4687 31.567 31.5892 33.0936 29.1466C34.6202 26.704 35.2579 23.8386 34.9053 21.0057C34.5526 18.1729 33.2299 15.5351 31.1473 13.5118ZM8.7232 22.1885C8.65689 22.2526 8.6043 22.3287 8.56844 22.4123C8.53257 22.4959 8.5141 22.5856 8.51412 22.6761C8.53835 24.9984 9.21776 27.2703 10.4792 29.2473C10.5079 29.2922 10.5211 29.3447 10.517 29.3972C10.513 29.4497 10.4918 29.4996 10.4566 29.5399C10.4213 29.5802 10.3738 29.6085 10.3209 29.6211C10.2679 29.6337 10.2122 29.6298 10.1616 29.6099C9.21332 29.2246 8.35182 28.6644 7.62531 27.9609C6.13646 26.5224 5.29946 24.5718 5.2981 22.5377C5.29675 20.5035 6.13117 18.5519 7.61812 17.1117L17.5006 7.5661L27.3826 17.1117C28.8698 18.5518 29.7045 20.5033 29.703 22.5377C29.7018 24.5718 28.8647 26.5224 27.3757 27.9609C26.6492 28.6644 25.7877 29.2246 24.8396 29.6099C24.7889 29.6298 24.7332 29.6337 24.6802 29.6211C24.6273 29.6085 24.5798 29.58 24.5445 29.5399C24.5093 29.4996 24.488 29.4497 24.484 29.397C24.4799 29.3445 24.4931 29.292 24.5218 29.2472C25.7835 27.2703 26.4633 24.9984 26.4879 22.6761C26.4879 22.5856 26.4692 22.4959 26.4332 22.4121C26.3971 22.3284 26.3444 22.2524 26.2779 22.1884L21.6037 17.399C21.5571 17.3615 21.4985 17.3409 21.4378 17.3409C21.3773 17.3409 21.3186 17.3615 21.2721 17.399C21.2255 17.4364 21.1942 17.4886 21.1833 17.5462C21.1724 17.6037 21.1828 17.663 21.2127 17.714C23.0281 20.8875 21.467 25.4458 18.8637 27.9609L18.85 27.9741C18.4907 28.3175 18.0056 28.51 17.5002 28.5098C16.9948 28.5097 16.5098 28.3168 16.1508 27.9733L16.1382 27.9609C13.5339 25.4458 11.9736 20.888 13.7893 17.7147C13.8192 17.6637 13.8296 17.6044 13.8187 17.5468C13.8079 17.4892 13.7764 17.4371 13.7299 17.3997C13.6834 17.3622 13.6247 17.3416 13.5642 17.3416C13.5036 17.3416 13.4449 17.3622 13.3984 17.3997L8.7232 22.1885Z" fill="#FF5E3A"/>
</svg>
